<svg xmlns="http://www.w3.org/2000/svg" xmlns:xlink="http://www.w3.org/1999/xlink" width="108.67" height="40.947" viewBox="0 0 108.67 40.947">
  <defs>
    <clipPath id="clip-path">
      <rect id="Rectangle_1539" data-name="Rectangle 1539" width="108.67" height="40.947" fill="#f5f5f4"/>
    </clipPath>
  </defs>
  <g id="Group_563" data-name="Group 563" transform="translate(0 0)">
    <path id="Path_533" data-name="Path 533" d="M0,.4V19.779H12.7V18.2H1.846V.4Z" transform="translate(0 0.009)" fill="#f5f5f4"/>
    <path id="Path_534" data-name="Path 534" d="M32.3,18.2H20.631V10.55h10.8V8.976h-10.8v-7H32.167V.4H18.786V19.779H32.3Z" transform="translate(0.403 0.009)" fill="#f5f5f4"/>
    <rect id="Rectangle_1537" data-name="Rectangle 1537" width="1.846" height="19.381" transform="translate(40.031 0.406)" fill="#f5f5f4"/>
    <path id="Path_535" data-name="Path 535" d="M54.186,19.779h1.846V1.973H62.79V.4H47.427V1.973h6.759Z" transform="translate(1.016 0.009)" fill="#f5f5f4"/>
    <path id="Path_536" data-name="Path 536" d="M70.849,10.387H82.358v9.391H84.2V.4H82.358V8.813H70.849V.4H69v19.38h1.847Z" transform="translate(1.479 0.009)" fill="#f5f5f4"/>
    <g id="Group_564" data-name="Group 564" transform="translate(0 0)">
      <g id="Group_563-2" data-name="Group 563" clip-path="url(#clip-path)">
        <path id="Path_537" data-name="Path 537" d="M99.732,18.621c-3.529,0-6.406-1.222-6.325-5.211H91.562c-.218,4.723,3.148,6.785,7.735,6.785,6.867,0,7.41-4.207,7.41-5.537,0-3.176-2.281-4.37-5.022-5.1L96.963,8.387c-1.574-.38-2.932-1.139-2.932-2.958,0-2.877,2.335-3.854,4.859-3.854,2.742,0,5.184,1.492,5.293,4.451h1.846C106.056,2.063,102.69,0,98.862,0c-5.455,0-6.676,3.557-6.676,5.456,0,3.012,2.089,4.1,4.37,4.668l4.316,1.059c1.792.434,3.99,1.3,3.99,3.5,0,2.822-3.094,3.936-5.13,3.936" transform="translate(1.962 0)" fill="#f5f5f4"/>
        <rect id="Rectangle_1538" data-name="Rectangle 1538" width="107.996" height="1.251" transform="translate(0.001 24.031)" fill="#f5f5f4"/>
        <path id="Path_538" data-name="Path 538" d="M10.419,40.061,6.04,28.854H4.392L.013,40.061H1.55l1.256-3.375h4.74l1.225,3.375Zm-7.142-4.63,1.9-5.227h.032l1.868,5.227Z" transform="translate(0 0.618)" fill="#f5f5f4"/>
        <path id="Path_539" data-name="Path 539" d="M21.207,29.849a2.953,2.953,0,0,1,3.14,2.386h1.49c-.344-2.386-2.276-3.641-4.614-3.641-3.453,0-5.306,2.653-5.306,5.9,0,3.264,1.7,5.838,5.181,5.838a4.561,4.561,0,0,0,4.85-4.489H24.456a3.171,3.171,0,0,1-3.233,3.234c-2.684,0-3.815-2.135-3.815-4.693,0-2.339,1.131-4.536,3.8-4.536" transform="translate(0.341 0.613)" fill="#f5f5f4"/>
        <path id="Path_540" data-name="Path 540" d="M40.181,40.061h1.648L37.449,28.854H35.8L31.422,40.061h1.537l1.256-3.375h4.74Zm-5.494-4.63,1.9-5.227h.032l1.868,5.227Z" transform="translate(0.673 0.618)" fill="#f5f5f4"/>
        <path id="Path_541" data-name="Path 541" d="M51.71,28.854H47.864V40.061H51.71c3.736,0,5.384-2.118,5.384-5.87,0-3.61-1.931-5.337-5.384-5.337m.126,9.952h-2.48v-8.7h2.512c2.747,0,3.735,1.616,3.735,4.285,0,4.128-2.747,4.411-3.767,4.411" transform="translate(1.026 0.618)" fill="#f5f5f4"/>
        <path id="Path_542" data-name="Path 542" d="M71.6,30.11V28.855H63.861V40.062h7.785V38.806H65.352V34.929h5.823V33.673H65.352V30.11Z" transform="translate(1.369 0.618)" fill="#f5f5f4"/>
        <path id="Path_543" data-name="Path 543" d="M84.031,38.272,80.5,28.855h-2.04V40.062h1.413V30.738H79.9l3.5,9.324h1.272l3.5-9.324h.032v9.324h1.413V28.855H87.579Z" transform="translate(1.681 0.618)" fill="#f5f5f4"/>
        <path id="Path_544" data-name="Path 544" d="M100.956,34.191,97.6,28.854H95.823l4.332,6.624v4.583h1.491V35.478l4.285-6.624h-1.695Z" transform="translate(2.053 0.618)" fill="#f5f5f4"/>
      </g>
    </g>
  </g>
</svg>
